<svg width="408" height="128" viewBox="0 0 408 128" fill="none" xmlns="http://www.w3.org/2000/svg">
<path d="M9.18382 55.0517H1V72.9478H9.18382V55.0517Z" fill="#131217"/>
<path d="M17.969 31.4321H10.3342V96.3325H17.969V31.4321Z" fill="#131217"/>
<path d="M26.7555 20.7235H19.6699V75.8236H26.7555V20.7235Z" fill="#131217"/>
<path d="M35.5381 13.455H29.0277V62.4832H35.5381V13.455Z" fill="#131217"/>
<path d="M44.3244 8.60751H38.363V55.372H44.3244V8.60751Z" fill="#131217"/>
<path d="M53.1098 5.5995H47.6975V51.1656H53.1098V5.5995Z" fill="#131217"/>
<path d="M61.8958 4H57.0326V49.2465H61.8958V4Z" fill="#131217"/>
<path d="M70.6794 4H66.3652V49.2465H70.6794V4Z" fill="#131217"/>
<path d="M79.4914 5.5995H75.7263V51.1656H79.4914V5.5995Z" fill="#131217"/>
<path d="M88.2768 8.60751H85.0608V55.372H88.2768V8.60751Z" fill="#131217"/>
<path d="M97.0358 13.455H94.3951V62.6962H97.0358V13.455Z" fill="#131217"/>
<path d="M105.821 20.7235H103.729V52.175H105.821V20.7235Z" fill="#131217"/>
<path d="M127 55.3728H118.816V72.6298H127V55.3728Z" fill="#131217"/>
<path d="M117.663 31.6699H110.029V94.2267H117.663V31.6699Z" fill="#131217"/>
<path d="M108.332 52.1766H101.246V107.277H108.332V52.1766Z" fill="#131217"/>
<path d="M98.9711 65.3056H92.4606V114.547H98.9711V65.3056Z" fill="#131217"/>
<path d="M89.6357 72.6293H83.6743V119.394H89.6357V72.6293Z" fill="#131217"/>
<path d="M80.3024 76.8368H74.8901V122.403H80.3024V76.8368Z" fill="#131217"/>
<path d="M70.9684 78.7535H66.1051V124H70.9684V78.7535Z" fill="#131217"/>
<path d="M61.6326 78.7535H57.3185V124H61.6326V78.7535Z" fill="#131217"/>
<path d="M52.2999 76.8368H48.5349V122.403H52.2999V76.8368Z" fill="#131217"/>
<path d="M42.9667 72.6293H39.7507V119.394H42.9667V72.6293Z" fill="#131217"/>
<path d="M33.604 65.3056H30.9632V114.547H33.604V65.3056Z" fill="#131217"/>
<path d="M24.2708 75.8243H22.179V107.276H24.2708V75.8243Z" fill="#131217"/>
<path d="M159.293 88.9933H146L165.011 63.3207L147.143 38.2202H160.294L171.8 54.5248L183.307 38.2202H196.457L178.661 63.3207L197.6 88.9933H184.379L171.8 72.1881L159.293 88.9933Z" fill="#131217"/>
<path d="M214.701 89.7799C209.174 89.7799 204.624 88.0159 201.05 84.488C197.524 80.9602 195.762 76.4788 195.762 71.0439C195.762 65.7044 197.548 61.2707 201.122 57.7428C204.743 54.2149 209.269 52.451 214.701 52.451C217.321 52.451 219.775 52.9039 222.062 53.8097C224.397 54.7155 226.445 56.0265 228.208 57.7428C230.019 59.4591 231.424 61.6759 232.425 64.3934C233.425 67.1108 233.878 70.1858 233.783 73.6183H206.267C206.458 75.573 207.316 77.2177 208.84 78.5526C210.365 79.8398 212.509 80.4834 215.272 80.4834C216.845 80.4834 218.274 80.1735 219.561 79.5538C220.847 78.8863 221.705 78.0759 222.133 77.1224H233.425C232.282 80.8886 229.995 83.9398 226.564 86.2758C223.134 88.6119 219.179 89.7799 214.701 89.7799ZM214.415 61.0323C212.366 61.0323 210.651 61.5567 209.269 62.6056C207.935 63.6544 207.03 65.037 206.553 66.7532H221.848C221.323 64.7986 220.347 63.3684 218.917 62.4626C217.536 61.5091 216.035 61.0323 214.415 61.0323Z" fill="#131217"/>
<path d="M257.275 89.7799C251.748 89.7799 247.198 88.0159 243.624 84.488C240.098 80.9602 238.336 76.4788 238.336 71.0439C238.336 65.7044 240.122 61.2707 243.696 57.7428C247.317 54.2149 251.843 52.451 257.275 52.451C259.895 52.451 262.349 52.9039 264.636 53.8097C266.971 54.7155 269.019 56.0265 270.782 57.7428C272.593 59.4591 273.998 61.6759 274.999 64.3934C275.999 67.1108 276.452 70.1858 276.357 73.6183H248.841C249.032 75.573 249.89 77.2177 251.414 78.5526C252.939 79.8398 255.083 80.4834 257.846 80.4834C259.419 80.4834 260.848 80.1735 262.135 79.5538C263.421 78.8863 264.279 78.0759 264.707 77.1224H275.999C274.856 80.8886 272.569 83.9398 269.138 86.2758C265.708 88.6119 261.753 89.7799 257.275 89.7799ZM256.989 61.0323C254.94 61.0323 253.225 61.5567 251.843 62.6056C250.509 63.6544 249.604 65.037 249.127 66.7532H264.421C263.897 64.7986 262.921 63.3684 261.491 62.4626C260.11 61.5091 258.609 61.0323 256.989 61.0323Z" fill="#131217"/>
<path d="M283.054 88.9933V53.2376H293.845V56.8847C295.894 53.9289 299.205 52.451 303.779 52.451C308.115 52.451 311.498 53.905 313.928 56.8132C316.405 59.7213 317.644 63.5591 317.644 68.3265V88.9933H306.853V70.1858C306.853 64.8939 304.923 62.248 301.064 62.248C298.92 62.248 297.18 63.0346 295.846 64.6079C294.512 66.1811 293.845 68.5172 293.845 71.616V88.9933H283.054Z" fill="#131217"/>
<path d="M355.92 84.4165C352.251 87.9921 347.82 89.7799 342.627 89.7799C337.434 89.7799 333.003 87.9921 329.334 84.4165C325.665 80.7933 323.831 76.3596 323.831 71.1154C323.831 65.8713 325.665 61.4614 329.334 57.8858C333.003 54.2626 337.434 52.451 342.627 52.451C347.82 52.451 352.251 54.2626 355.92 57.8858C359.589 61.4614 361.423 65.8713 361.423 71.1154C361.423 76.3596 359.589 80.7933 355.92 84.4165ZM336.909 77.3369C338.434 78.9102 340.34 79.6968 342.627 79.6968C344.914 79.6968 346.796 78.9102 348.273 77.3369C349.798 75.7637 350.56 73.6898 350.56 71.1154C350.56 68.541 349.798 66.4672 348.273 64.8939C346.796 63.3207 344.914 62.5341 342.627 62.5341C340.34 62.5341 338.434 63.3207 336.909 64.8939C335.432 66.4672 334.694 68.541 334.694 71.1154C334.694 73.6898 335.432 75.7637 336.909 77.3369Z" fill="#131217"/>
<path d="M368.062 88.9933V53.2376H378.854V56.8847C380.902 53.9289 384.214 52.451 388.788 52.451C393.123 52.451 396.506 53.905 398.936 56.8132C401.414 59.7213 402.653 63.5591 402.653 68.3265V88.9933H391.861V70.1858C391.861 64.8939 389.931 62.248 386.072 62.248C383.928 62.248 382.189 63.0346 380.855 64.6079C379.521 66.1811 378.854 68.5172 378.854 71.616V88.9933H368.062Z" fill="#131217"/>
</svg>
