<svg width="406" height="384" viewBox="0 0 406 384" fill="none" xmlns="http://www.w3.org/2000/svg">
<path fill-rule="evenodd" clip-rule="evenodd" d="M52 216V168H30V216H52ZM77 279V104H56V279H77ZM100 224V75H81V224H88V309H94V224H100ZM125 188V56H107V188H125ZM149 168V42H133V168H149ZM173 157V34H158V157H173ZM197 152V30H184V152H197ZM221 152V30H209V152H221ZM245 157V34H235V157H245ZM270 168V42H261V168H270ZM293 189V56H286V189H293ZM318 160V75H312V160H305V309H324V160H318ZM376 216V169H354V216H376ZM350 274V105H329V274H350ZM299 329V196H281V329H299ZM273 341V215H257V341H273ZM248 350V227H233V350H248ZM222 354V232H209V354H222ZM197 354V232H185V354H197ZM171 350V227H161V350H171ZM145 341V215H136V341H145ZM119 329V196H112V329H119Z" fill="white"/>
</svg>
