<svg width="406" height="384" viewBox="0 0 406 384" fill="none" xmlns="http://www.w3.org/2000/svg">
<path d="M52 168H30V216H52V168Z" fill="black"/>
<path fill-rule="evenodd" clip-rule="evenodd" d="M51.5 168.5H30.5V215.5H51.5V168.5ZM52 168V216H30V168H52Z" fill="black"/>
<path d="M77 104H56V279H77V104Z" fill="black"/>
<path fill-rule="evenodd" clip-rule="evenodd" d="M76.5 104.5H56.5V278.5H76.5V104.5ZM77 104V279H56V104H77Z" fill="black"/>
<path d="M100 75H81V224H100V75Z" fill="black"/>
<path fill-rule="evenodd" clip-rule="evenodd" d="M99.5 75.5H81.5V223.5H99.5V75.5ZM100 75V224H81V75H100Z" fill="black"/>
<path d="M125 56H107V188H125V56Z" fill="black"/>
<path fill-rule="evenodd" clip-rule="evenodd" d="M124.5 56.5H107.5V187.5H124.5V56.5ZM125 56V188H107V56H125Z" fill="black"/>
<path d="M149 42H133V168H149V42Z" fill="black"/>
<path fill-rule="evenodd" clip-rule="evenodd" d="M148.5 42.5H133.5V167.5H148.5V42.5ZM149 42V168H133V42H149Z" fill="black"/>
<path d="M173 34H158V157H173V34Z" fill="black"/>
<path fill-rule="evenodd" clip-rule="evenodd" d="M172.5 34.5H158.5V156.5H172.5V34.5ZM173 34V157H158V34H173Z" fill="black"/>
<path d="M197 30H184V152H197V30Z" fill="black"/>
<path fill-rule="evenodd" clip-rule="evenodd" d="M196.5 30.5H184.5V151.5H196.5V30.5ZM197 30V152H184V30H197Z" fill="black"/>
<path d="M221 30H209V152H221V30Z" fill="black"/>
<path fill-rule="evenodd" clip-rule="evenodd" d="M220.5 30.5H209.5V151.5H220.5V30.5ZM221 30V152H209V30H221Z" fill="black"/>
<path d="M245 34H235V157H245V34Z" fill="black"/>
<path fill-rule="evenodd" clip-rule="evenodd" d="M244.5 34.5H235.5V156.5H244.5V34.5ZM245 34V157H235V34H245Z" fill="black"/>
<path d="M270 42H261V168H270V42Z" fill="black"/>
<path fill-rule="evenodd" clip-rule="evenodd" d="M269.5 42.5H261.5V167.5H269.5V42.5ZM270 42V168H261V42H270Z" fill="black"/>
<path d="M293 56H286V189H293V56Z" fill="black"/>
<path fill-rule="evenodd" clip-rule="evenodd" d="M292.5 56.5H286.5V188.5H292.5V56.5ZM293 56V189H286V56H293Z" fill="black"/>
<path d="M318 75H312V160H318V75Z" fill="black"/>
<path fill-rule="evenodd" clip-rule="evenodd" d="M317.5 75.5H312.5V159.5H317.5V75.5ZM318 75V160H312V75H318Z" fill="black"/>
<path d="M376 169H354V216H376V169Z" fill="black"/>
<path fill-rule="evenodd" clip-rule="evenodd" d="M375.5 169.5H354.5V215.5H375.5V169.5ZM376 169V216H354V169H376Z" fill="black"/>
<path d="M350 105H329V274H350V105Z" fill="black"/>
<path fill-rule="evenodd" clip-rule="evenodd" d="M349.5 105.5H329.5V273.5H349.5V105.5ZM350 105V274H329V105H350Z" fill="black"/>
<path d="M324 160H305V309H324V160Z" fill="black"/>
<path fill-rule="evenodd" clip-rule="evenodd" d="M323.5 160.5H305.5V308.5H323.5V160.5ZM324 160V309H305V160H324Z" fill="black"/>
<path d="M299 196H281V329H299V196Z" fill="black"/>
<path fill-rule="evenodd" clip-rule="evenodd" d="M298.5 196.5H281.5V328.5H298.5V196.5ZM299 196V329H281V196H299Z" fill="black"/>
<path d="M273 215H257V341H273V215Z" fill="black"/>
<path fill-rule="evenodd" clip-rule="evenodd" d="M272.5 215.5H257.5V340.5H272.5V215.5ZM273 215V341H257V215H273Z" fill="black"/>
<path d="M248 227H233V350H248V227Z" fill="black"/>
<path fill-rule="evenodd" clip-rule="evenodd" d="M247.5 227.5H233.5V349.5H247.5V227.5ZM248 227V350H233V227H248Z" fill="black"/>
<path d="M222 232H209V354H222V232Z" fill="black"/>
<path fill-rule="evenodd" clip-rule="evenodd" d="M221.5 232.5H209.5V353.5H221.5V232.5ZM222 232V354H209V232H222Z" fill="black"/>
<path d="M197 232H185V354H197V232Z" fill="black"/>
<path fill-rule="evenodd" clip-rule="evenodd" d="M196.5 232.5H185.5V353.5H196.5V232.5ZM197 232V354H185V232H197Z" fill="black"/>
<path d="M171 227H161V350H171V227Z" fill="black"/>
<path fill-rule="evenodd" clip-rule="evenodd" d="M170.5 227.5H161.5V349.5H170.5V227.5ZM171 227V350H161V227H171Z" fill="black"/>
<path d="M145 215H136V341H145V215Z" fill="black"/>
<path fill-rule="evenodd" clip-rule="evenodd" d="M144.5 215.5H136.5V340.5H144.5V215.5ZM145 215V341H136V215H145Z" fill="black"/>
<path d="M119 196H112V329H119V196Z" fill="black"/>
<path fill-rule="evenodd" clip-rule="evenodd" d="M118.5 196.5H112.5V328.5H118.5V196.5ZM119 196V329H112V196H119Z" fill="black"/>
<path d="M94 224H88V309H94V224Z" fill="black"/>
<path fill-rule="evenodd" clip-rule="evenodd" d="M93.5 224.5H88.5V308.5H93.5V224.5ZM94 224V309H88V224H94Z" fill="black"/>
</svg>
