<svg width="1440" height="384" viewBox="0 0 1440 384" fill="none" xmlns="http://www.w3.org/2000/svg">
<path fill-rule="evenodd" clip-rule="evenodd" d="M52 216V168H30V216H52ZM77 279V104H56V279H77ZM100 224V75H81V224H88V309H94V224H100ZM125 188V56H107V188H125ZM149 168V42H133V168H149ZM173 157V34H158V157H173ZM197 152V30H184V152H197ZM221 152V30H209V152H221ZM245 157V34H235V157H245ZM270 168V42H261V168H270ZM293 189V56H286V189H293ZM318 160V75H312V160H305V309H324V160H318ZM376 216V169H354V216H376ZM350 274V105H329V274H350ZM299 329V196H281V329H299ZM273 341V215H257V341H273ZM248 350V227H233V350H248ZM222 354V232H209V354H222ZM197 354V232H185V354H197ZM171 350V227H161V350H171ZM145 341V215H136V341H145ZM119 329V196H112V329H119ZM1301.01 215.057C1300.91 207.895 1302.25 200.786 1304.96 194.155C1307.67 187.525 1311.69 181.508 1316.78 176.465C1321.86 171.422 1327.91 167.457 1334.56 164.804C1341.22 162.152 1348.34 160.869 1355.49 161.03C1362.67 160.789 1369.83 162.018 1376.52 164.642C1383.2 167.266 1389.29 171.229 1394.39 176.288C1399.49 181.347 1403.51 187.395 1406.19 194.062C1408.87 200.729 1410.16 207.873 1409.98 215.057V226.197H1334.65C1334.7 226.365 1334.76 226.531 1334.81 226.697C1334.83 226.761 1334.86 226.824 1334.88 226.887C1334.89 226.933 1334.91 226.978 1334.92 227.024C1336.37 231.119 1339.06 234.67 1342.62 237.171C1346.43 239.838 1351.01 241.156 1355.65 240.918C1359.11 241.221 1362.59 240.546 1365.68 238.971C1368.77 237.395 1371.36 234.982 1373.15 232.006H1409.11C1409.05 232.162 1409 232.317 1408.94 232.473C1408.72 233.078 1408.49 233.679 1408.24 234.275C1403.68 245.503 1395.57 254.96 1385.12 261.176C1373.97 267.808 1360.85 270.337 1348.04 268.328C1335.22 266.319 1323.51 259.897 1314.92 250.172C1306.34 240.446 1301.41 228.027 1301.01 215.057ZM1336.18 200.943L1336.16 200.974V201.133H1375.94C1375.86 200.965 1375.78 200.799 1375.7 200.633L1375.7 200.633C1375.67 200.572 1375.64 200.511 1375.61 200.45C1373.89 197.073 1371.26 194.245 1367.99 192.301C1364.52 190.227 1360.49 189.256 1356.45 189.516C1352.33 189.291 1348.23 190.251 1344.63 192.281C1341.15 194.247 1338.29 197.139 1336.35 200.633L1336.34 200.642L1336.33 200.672L1336.29 200.741L1336.25 200.811C1336.23 200.855 1336.2 200.899 1336.18 200.943ZM480.892 268L432 117H469.42L499.404 211.365L528.002 118.924L527.379 117H528.597H564.799H565.621L565.212 118.301L594.783 211.365L623.975 117H661L613.532 268H576.27L546.783 176.929L518.154 268H480.892ZM640.006 214.125C639.88 203.318 642.972 192.718 648.887 183.672C654.802 174.626 663.273 167.544 673.225 163.324C683.176 159.105 694.157 157.94 704.772 159.977C715.388 162.013 725.158 167.161 732.84 174.763C740.522 182.366 745.77 192.082 747.915 202.674C750.061 213.266 749.008 224.258 744.89 234.25C740.773 244.243 733.776 252.786 724.79 258.792C715.804 264.799 705.235 267.998 694.426 267.983C687.276 268.165 680.164 266.901 673.516 264.266C666.867 261.631 660.82 257.679 655.737 252.649C650.655 247.619 646.641 241.613 643.938 234.993C641.234 228.373 639.897 221.275 640.006 214.125ZM714.546 214.125C714.718 211.393 714.328 208.655 713.401 206.079C712.474 203.503 711.028 201.145 709.154 199.149C707.28 197.153 705.017 195.563 702.504 194.476C699.991 193.388 697.282 192.828 694.544 192.828C691.807 192.828 689.098 193.388 686.585 194.476C684.072 195.563 681.809 197.153 679.935 199.149C678.061 201.145 676.616 203.503 675.688 206.079C674.761 208.655 674.371 211.393 674.543 214.125C674.371 216.857 674.761 219.595 675.688 222.171C676.616 224.747 678.061 227.105 679.935 229.101C681.809 231.097 684.072 232.687 686.585 233.774C689.098 234.862 691.807 235.422 694.544 235.422C697.282 235.422 699.991 234.862 702.504 233.774C705.017 232.687 707.28 231.097 709.154 229.101C711.028 227.105 712.474 224.747 713.401 222.171C714.328 219.595 714.718 216.857 714.546 214.125ZM1147.01 214.125C1146.88 203.318 1149.97 192.718 1155.89 183.672C1161.8 174.626 1170.27 167.544 1180.22 163.324C1190.18 159.105 1201.16 157.94 1211.77 159.977C1222.39 162.013 1232.16 167.161 1239.84 174.763C1247.52 182.366 1252.77 192.082 1254.92 202.674C1257.06 213.266 1256.01 224.258 1251.89 234.25C1247.77 244.243 1240.78 252.786 1231.79 258.792C1222.8 264.799 1212.23 267.998 1201.43 267.983C1194.28 268.165 1187.16 266.901 1180.52 264.266C1173.87 261.631 1167.82 257.679 1162.74 252.649C1157.65 247.619 1153.64 241.613 1150.94 234.993C1148.23 228.373 1146.9 221.275 1147.01 214.125ZM1221.55 214.125C1221.72 211.393 1221.33 208.655 1220.4 206.079C1219.47 203.503 1218.03 201.145 1216.15 199.149C1214.28 197.153 1212.02 195.563 1209.5 194.476C1206.99 193.388 1204.28 192.828 1201.54 192.828C1198.81 192.828 1196.1 193.388 1193.59 194.476C1191.07 195.563 1188.81 197.153 1186.93 199.149C1185.06 201.145 1183.62 203.503 1182.69 206.079C1181.76 208.655 1181.37 211.393 1181.54 214.125C1181.37 216.857 1181.76 219.595 1182.69 222.171C1183.62 224.747 1185.06 227.105 1186.93 229.101C1188.81 231.097 1191.07 232.687 1193.59 233.774C1196.1 234.862 1198.81 235.422 1201.54 235.422C1204.28 235.422 1206.99 234.862 1209.5 233.774C1212.02 232.687 1214.28 231.097 1216.15 229.101C1218.03 227.105 1219.47 224.747 1220.4 222.171C1221.33 219.595 1221.72 216.857 1221.55 214.125ZM820 158.5C813.024 158.5 806.672 160.262 800.955 163.79C795.701 166.914 791.258 171.141 787.624 176.463V159.66H754.5V268.5H787.624V217.945C787.624 209.105 789.621 203.105 793.464 199.77L793.47 199.763C797.35 196.271 803.22 194.48 811.171 194.48H820.5V158.5H820ZM972.912 268.5H1006.5V204.996C1006.5 190.474 1002.51 179.061 994.474 170.828C986.567 162.596 975.885 158.5 962.486 158.5C954.859 158.5 947.807 160.391 941.339 164.173C935.137 167.799 930.179 172.452 926.472 178.132C922.882 171.96 917.968 167.173 911.736 163.78C905.392 160.256 898.15 158.5 890.026 158.5C883.186 158.5 877.039 159.866 871.594 162.61C866.632 164.993 862.524 168.196 859.28 172.221V159.66H825.5V268.5H859.28V209.441C859.28 202.568 861.046 197.362 864.508 193.747C868.102 189.999 873.009 188.103 879.291 188.103C885.573 188.103 890.412 189.999 893.876 193.74L893.882 193.747L893.888 193.753C897.474 197.368 899.302 202.572 899.302 209.441V268.5H932.89V209.441C932.89 202.568 934.656 197.362 938.118 193.747C941.712 189.999 946.619 188.103 952.901 188.103C959.184 188.103 964.022 189.999 967.486 193.74L967.492 193.747L967.498 193.753C971.084 197.368 972.912 202.572 972.912 209.441V268.5ZM1141.5 269.5V116.5H1103.94V176.044H1048.06V116.5H1010.5V269.5H1048.06V206.924H1103.94V269.5H1141.5ZM1261 268V117H1295V268H1261Z" fill="black"/>
</svg>
