<svg width="850" height="525" viewBox="0 0 850 525" fill="none" xmlns="http://www.w3.org/2000/svg">
<rect width="850" height="525" fill="white"/>
<path fill-rule="evenodd" clip-rule="evenodd" d="M251.595 187H245.478V243.558H251.595V187ZM233.736 188.999H240.544V245.957H233.736V188.999ZM229.494 192.759H221.995V251.215H229.494V192.759ZM210.253 198.819H218.442V260.104H210.253V198.819ZM207.395 207.904H198.483V276.779H207.395V207.904ZM186.741 221.29H196.344V302.416H186.741V221.29ZM175 250.815H185.294V273.185H175V250.815ZM257.217 187H262.643V243.558H257.217V187ZM273.727 188.999H268.991V245.957H273.727V188.999ZM280.732 192.759H284.777V251.215H280.732V192.759ZM295.794 198.819H292.473V260.37H295.794V198.819ZM304.213 207.904H306.844V247.219H304.213V207.904ZM333.483 251.216H323.19V272.787H333.483V251.216ZM312.137 221.587H321.74V299.783H312.137V221.587ZM310.002 247.221H301.09V316.096H310.002V247.221ZM290.04 263.632H298.229V325.183H290.04V263.632ZM286.486 272.787H278.988V331.242H286.486V272.787ZM267.939 278.046H274.747V335.004H267.939V278.046ZM263.007 280.442H256.89V337H263.007V280.442ZM245.838 280.442H251.264V337H245.838V280.442ZM239.525 278.046H234.79V335.004H239.525V278.046ZM223.741 272.787H227.786V331.242H223.741V272.787ZM216.009 263.632H212.688V325.183H216.009V263.632ZM201.639 276.78H204.27V316.095H201.639V276.78ZM355 293.162H371.574L387.168 272.209L402.851 293.162H419.336L395.723 261.153L417.911 229.857H401.515L387.168 250.186L372.822 229.857H356.426L378.703 261.153L355 293.162ZM423.638 287.545C428.093 291.944 433.766 294.143 440.658 294.143C446.242 294.143 451.172 292.687 455.449 289.774C459.727 286.861 462.578 283.057 464.004 278.361H449.925C449.39 279.55 448.321 280.561 446.717 281.393C445.113 282.165 443.331 282.552 441.37 282.552C437.925 282.552 435.252 281.749 433.351 280.144C431.45 278.48 430.38 276.429 430.143 273.992H464.449C464.568 269.712 464.004 265.879 462.756 262.49C461.509 259.102 459.756 256.338 457.499 254.198C455.301 252.058 452.747 250.424 449.836 249.294C446.984 248.165 443.925 247.6 440.658 247.6C433.885 247.6 428.242 249.8 423.727 254.198C419.271 258.597 417.044 264.125 417.044 270.782C417.044 277.559 419.242 283.146 423.638 287.545ZM433.885 260.261C435.608 258.954 437.747 258.3 440.301 258.3C442.321 258.3 444.192 258.894 445.915 260.083C447.697 261.212 448.915 262.996 449.568 265.433H430.499C431.093 263.293 432.222 261.569 433.885 260.261ZM493.74 294.143C486.849 294.143 481.175 291.944 476.72 287.545C472.324 283.146 470.126 277.559 470.126 270.782C470.126 264.125 472.354 258.597 476.809 254.198C481.324 249.8 486.967 247.6 493.74 247.6C497.007 247.6 500.066 248.165 502.918 249.294C505.829 250.424 508.383 252.058 510.581 254.198C512.839 256.338 514.591 259.102 515.839 262.49C517.086 265.879 517.65 269.712 517.532 273.992H483.225C483.462 276.429 484.532 278.48 486.433 280.144C488.334 281.749 491.007 282.552 494.453 282.552C496.413 282.552 498.195 282.165 499.799 281.393C501.403 280.561 502.472 279.55 503.007 278.361H517.086C515.66 283.057 512.809 286.861 508.532 289.774C504.254 292.687 499.324 294.143 493.74 294.143ZM493.383 258.3C490.829 258.3 488.69 258.954 486.967 260.261C485.304 261.569 484.175 263.293 483.581 265.433H502.65C501.997 262.996 500.779 261.212 498.997 260.083C497.274 258.894 495.403 258.3 493.383 258.3ZM525.881 248.581V293.162H539.337V271.496C539.337 267.632 540.168 264.719 541.832 262.758C543.495 260.796 545.663 259.816 548.337 259.816C553.148 259.816 555.554 263.115 555.554 269.712V293.162H569.01V267.394C569.01 261.45 567.465 256.665 564.376 253.039C561.346 249.413 557.129 247.6 551.723 247.6C546.02 247.6 541.891 249.443 539.337 253.128V248.581H525.881ZM616.733 287.456C612.159 291.914 606.634 294.143 600.159 294.143C593.684 294.143 588.159 291.914 583.585 287.456C579.01 282.938 576.723 277.41 576.723 270.872C576.723 264.333 579.01 258.835 583.585 254.377C588.159 249.859 593.684 247.6 600.159 247.6C606.634 247.6 612.159 249.859 616.733 254.377C621.307 258.835 623.594 264.333 623.594 270.872C623.594 277.41 621.307 282.938 616.733 287.456ZM593.03 278.629C594.931 280.59 597.307 281.571 600.159 281.571C603.01 281.571 605.357 280.59 607.198 278.629C609.099 276.667 610.05 274.081 610.05 270.872C610.05 267.662 609.099 265.076 607.198 263.115C605.357 261.153 603.01 260.172 600.159 260.172C597.307 260.172 594.931 261.153 593.03 263.115C591.188 265.076 590.268 267.662 590.268 270.872C590.268 274.081 591.188 276.667 593.03 278.629ZM645.327 248.581H631.872V293.162H645.327V271.496C645.327 267.632 646.159 264.719 647.822 262.758C649.485 260.796 651.654 259.816 654.327 259.816C659.139 259.816 661.545 263.115 661.545 269.712V293.162H675V267.394C675 261.45 673.455 256.665 670.366 253.039C667.337 249.413 663.119 247.6 657.713 247.6C652.01 247.6 647.881 249.443 645.327 253.128V248.581Z" fill="#131217"/>
</svg>
