<svg width="200" height="200" viewBox="0 0 200 200" fill="none" xmlns="http://www.w3.org/2000/svg">
<path d="M23.2543 87.5953H12V112.15H23.2543V87.5953Z" fill="black"/>
<path fill-rule="evenodd" clip-rule="evenodd" d="M22.9986 87.8511H12.2558V111.894H22.9986V87.8511ZM23.2543 87.5953V112.15H12V87.5953H23.2543Z" fill="black"/>
<path d="M36.0433 54.8555H25.3005V144.379H36.0433V54.8555Z" fill="black"/>
<path fill-rule="evenodd" clip-rule="evenodd" d="M35.7875 55.1112H25.5563V144.123H35.7875V55.1112ZM36.0433 54.8555V144.379H25.3005V54.8555H36.0433Z" fill="black"/>
<path d="M47.8093 40.0201H38.0896V116.243H47.8093V40.0201Z" fill="black"/>
<path fill-rule="evenodd" clip-rule="evenodd" d="M47.5535 40.2759H38.3454V115.987H47.5535V40.2759ZM47.8093 40.0201V116.243H38.0896V40.0201H47.8093Z" fill="black"/>
<path d="M60.5982 30.3007H51.3901V97.8267H60.5982V30.3007Z" fill="black"/>
<path fill-rule="evenodd" clip-rule="evenodd" d="M60.3424 30.5564H51.6459V97.5709H60.3424V30.5564ZM60.5982 30.3007V97.8267H51.3901V30.3007H60.5982Z" fill="black"/>
<path d="M72.8759 23.1387H64.6909V87.5953H72.8759V23.1387Z" fill="black"/>
<path fill-rule="evenodd" clip-rule="evenodd" d="M72.6201 23.3945H64.9467V87.3395H72.6201V23.3945ZM72.8759 23.1387V87.5953H64.6909V23.1387H72.8759Z" fill="black"/>
<path d="M85.1531 19.0463H77.4797V81.9682H85.1531V19.0463Z" fill="black"/>
<path fill-rule="evenodd" clip-rule="evenodd" d="M84.8974 19.302H77.7355V81.7124H84.8974V19.302ZM85.1531 19.0463V81.9682H77.4797V19.0463H85.1531Z" fill="black"/>
<path d="M97.4308 17H90.7805V79.4104H97.4308V17Z" fill="black"/>
<path fill-rule="evenodd" clip-rule="evenodd" d="M97.175 17.2558H91.0363V79.1546H97.175V17.2558ZM97.4308 17V79.4104H90.7805V17H97.4308Z" fill="black"/>
<path d="M109.708 17H103.57V79.4104H109.708V17Z" fill="black"/>
<path fill-rule="evenodd" clip-rule="evenodd" d="M109.453 17.2558H103.825V79.1546H109.453V17.2558ZM109.708 17V79.4104H103.57V17H109.708Z" fill="black"/>
<path d="M121.985 19.0463H116.87V81.9682H121.985V19.0463Z" fill="black"/>
<path fill-rule="evenodd" clip-rule="evenodd" d="M121.73 19.302H117.126V81.7124H121.73V19.302ZM121.985 19.0463V81.9682H116.87V19.0463H121.985Z" fill="black"/>
<path d="M134.774 23.1387H130.17V87.5953H134.774V23.1387Z" fill="black"/>
<path fill-rule="evenodd" clip-rule="evenodd" d="M134.519 23.3945H130.426V87.3395H134.519V23.3945ZM134.774 23.1387V87.5953H130.17V23.1387H134.774Z" fill="black"/>
<path d="M146.54 30.3007H142.959V98.3382H146.54V30.3007Z" fill="black"/>
<path fill-rule="evenodd" clip-rule="evenodd" d="M146.285 30.5564H143.215V98.0825H146.285V30.5564ZM146.54 30.3007V98.3382H142.959V30.3007H146.54Z" fill="black"/>
<path d="M159.329 40.0201H156.26V83.5028H159.329V40.0201Z" fill="black"/>
<path fill-rule="evenodd" clip-rule="evenodd" d="M159.074 40.2759H156.516V83.247H159.074V40.2759ZM159.329 40.0201V83.5028H156.26V40.0201H159.329Z" fill="black"/>
<path d="M189 88.1069H177.746V112.15H189V88.1069Z" fill="black"/>
<path fill-rule="evenodd" clip-rule="evenodd" d="M188.744 88.3627H178.001V111.895H188.744V88.3627ZM189 88.1069V112.15H177.746V88.1069H189Z" fill="black"/>
<path d="M175.699 55.3669H164.957V141.821H175.699V55.3669Z" fill="black"/>
<path fill-rule="evenodd" clip-rule="evenodd" d="M175.444 55.6227H165.212V141.565H175.444V55.6227ZM175.699 55.3669V141.821H164.957V55.3669H175.699Z" fill="black"/>
<path d="M162.399 83.5028H152.679V159.725H162.399V83.5028Z" fill="black"/>
<path fill-rule="evenodd" clip-rule="evenodd" d="M162.143 83.7586H152.935V159.47H162.143V83.7586ZM162.399 83.5028V159.725H152.679V83.5028H162.399Z" fill="black"/>
<path d="M149.61 101.919H140.402V169.957H149.61V101.919Z" fill="black"/>
<path fill-rule="evenodd" clip-rule="evenodd" d="M149.354 102.175H140.658V169.701H149.354V102.175ZM149.61 101.919V169.957H140.402V101.919H149.61Z" fill="black"/>
<path d="M136.309 111.639H128.124V176.095H136.309V111.639Z" fill="black"/>
<path fill-rule="evenodd" clip-rule="evenodd" d="M136.053 111.894H128.38V175.84H136.053V111.894ZM136.309 111.639V176.095H128.124V111.639H136.309Z" fill="black"/>
<path d="M123.52 117.777H115.847V180.699H123.52V117.777Z" fill="black"/>
<path fill-rule="evenodd" clip-rule="evenodd" d="M123.265 118.033H116.103V180.444H123.265V118.033ZM123.52 117.777V180.699H115.847V117.777H123.52Z" fill="black"/>
<path d="M110.22 120.335H103.57V182.746H110.22V120.335Z" fill="black"/>
<path fill-rule="evenodd" clip-rule="evenodd" d="M109.964 120.591H103.825V182.49H109.964V120.591ZM110.22 120.335V182.746H103.57V120.335H110.22Z" fill="black"/>
<path d="M97.4305 120.335H91.2917V182.746H97.4305V120.335Z" fill="black"/>
<path fill-rule="evenodd" clip-rule="evenodd" d="M97.1747 120.591H91.5475V182.49H97.1747V120.591ZM97.4305 120.335V182.746H91.2917V120.335H97.4305Z" fill="black"/>
<path d="M84.13 117.777H79.0144V180.699H84.13V117.777Z" fill="black"/>
<path fill-rule="evenodd" clip-rule="evenodd" d="M83.8742 118.033H79.2702V180.444H83.8742V118.033ZM84.13 117.777V180.699H79.0144V117.777H84.13Z" fill="black"/>
<path d="M70.8294 111.639H66.2253V176.095H70.8294V111.639Z" fill="black"/>
<path fill-rule="evenodd" clip-rule="evenodd" d="M70.5736 111.894H66.4811V175.84H70.5736V111.894ZM70.8294 111.639V176.095H66.2253V111.639H70.8294Z" fill="black"/>
<path d="M57.5289 101.919H53.948V169.957H57.5289V101.919Z" fill="black"/>
<path fill-rule="evenodd" clip-rule="evenodd" d="M57.2731 102.175H54.2038V169.701H57.2731V102.175ZM57.5289 101.919V169.957H53.948V101.919H57.5289Z" fill="black"/>
<path d="M44.7398 116.243H41.6704V159.725H44.7398V116.243Z" fill="black"/>
<path fill-rule="evenodd" clip-rule="evenodd" d="M44.484 116.499H41.9262V159.47H44.484V116.499ZM44.7398 116.243V159.725H41.6704V116.243H44.7398Z" fill="black"/>
</svg>
