<svg width="256" height="256" viewBox="0 0 256 256" fill="none" xmlns="http://www.w3.org/2000/svg">
<path d="M30.3064 111.902H16V143.116H30.3064V111.902Z" fill="black"/>
<path fill-rule="evenodd" clip-rule="evenodd" d="M29.9812 112.227H16.3251V142.79H29.9812V112.227ZM30.3064 111.902V143.116H16V111.902H30.3064Z" fill="black"/>
<path d="M46.5633 70.2832H32.9072V184.084H46.5633V70.2832Z" fill="black"/>
<path fill-rule="evenodd" clip-rule="evenodd" d="M46.2382 70.6083H33.2324V183.759H46.2382V70.6083ZM46.5633 70.2832V184.084H32.9072V70.2832H46.5633Z" fill="black"/>
<path d="M61.52 51.4248H49.1646V148.318H61.52V51.4248Z" fill="black"/>
<path fill-rule="evenodd" clip-rule="evenodd" d="M61.1949 51.7499H49.4897V147.993H61.1949V51.7499ZM61.52 51.4248V148.318H49.1646V51.4248H61.52Z" fill="black"/>
<path d="M77.7775 39.0695H66.0723V124.908H77.7775V39.0695Z" fill="black"/>
<path fill-rule="evenodd" clip-rule="evenodd" d="M77.4523 39.3946H66.3974V124.582H77.4523V39.3946ZM77.7775 39.0695V124.908H66.0723V39.0695H77.7775Z" fill="black"/>
<path d="M93.3844 29.9652H82.9797V111.902H93.3844V29.9652Z" fill="black"/>
<path fill-rule="evenodd" clip-rule="evenodd" d="M93.0592 30.2904H83.3049V111.576H93.0592V30.2904ZM93.3844 29.9652V111.902H82.9797V29.9652H93.3844Z" fill="black"/>
<path d="M108.991 24.7631H99.2368V104.749H108.991V24.7631Z" fill="black"/>
<path fill-rule="evenodd" clip-rule="evenodd" d="M108.666 25.0882H99.562V104.423H108.666V25.0882ZM108.991 24.7631V104.749H99.2368V24.7631H108.991Z" fill="black"/>
<path d="M124.599 22.1619H116.145V101.497H124.599V22.1619Z" fill="black"/>
<path fill-rule="evenodd" clip-rule="evenodd" d="M124.273 22.487H116.47V101.172H124.273V22.487ZM124.599 22.1619V101.497H116.145V22.1619H124.599Z" fill="black"/>
<path d="M140.205 22.1619H132.402V101.497H140.205V22.1619Z" fill="black"/>
<path fill-rule="evenodd" clip-rule="evenodd" d="M139.88 22.487H132.727V101.172H139.88V22.487ZM140.205 22.1619V101.497H132.402V22.1619H140.205Z" fill="black"/>
<path d="M155.812 24.7631H149.309V104.749H155.812V24.7631Z" fill="black"/>
<path fill-rule="evenodd" clip-rule="evenodd" d="M155.487 25.0882H149.634V104.423H155.487V25.0882ZM155.812 24.7631V104.749H149.309V24.7631H155.812Z" fill="black"/>
<path d="M172.069 29.9652H166.217V111.902H172.069V29.9652Z" fill="black"/>
<path fill-rule="evenodd" clip-rule="evenodd" d="M171.744 30.2904H166.542V111.576H171.744V30.2904ZM172.069 29.9652V111.902H166.217V29.9652H172.069Z" fill="black"/>
<path d="M187.026 39.0695H182.474V125.558H187.026V39.0695Z" fill="black"/>
<path fill-rule="evenodd" clip-rule="evenodd" d="M186.701 39.3946H182.799V125.233H186.701V39.3946ZM187.026 39.0695V125.558H182.474V39.0695H187.026Z" fill="black"/>
<path d="M203.283 51.4248H199.381V106.699H203.283V51.4248Z" fill="black"/>
<path fill-rule="evenodd" clip-rule="evenodd" d="M202.958 51.7499H199.706V106.374H202.958V51.7499ZM203.283 51.4248V106.699H199.381V51.4248H203.283Z" fill="black"/>
<path d="M241 112.552H226.694V143.116H241V112.552Z" fill="black"/>
<path fill-rule="evenodd" clip-rule="evenodd" d="M240.675 112.877H227.019V142.79H240.675V112.877ZM241 112.552V143.116H226.694V112.552H241Z" fill="black"/>
<path d="M224.092 70.9333H210.436V180.832H224.092V70.9333Z" fill="black"/>
<path fill-rule="evenodd" clip-rule="evenodd" d="M223.767 71.2585H210.761V180.507H223.767V71.2585ZM224.092 70.9333V180.832H210.436V70.9333H224.092Z" fill="black"/>
<path d="M207.185 106.699H194.83V203.592H207.185V106.699Z" fill="black"/>
<path fill-rule="evenodd" clip-rule="evenodd" d="M206.86 107.024H195.155V203.267H206.86V107.024ZM207.185 106.699V203.592H194.83V106.699H207.185Z" fill="black"/>
<path d="M190.928 130.11H179.222V216.598H190.928V130.11Z" fill="black"/>
<path fill-rule="evenodd" clip-rule="evenodd" d="M190.602 130.435H179.548V216.273H190.602V130.435ZM190.928 130.11V216.598H179.222V130.11H190.928Z" fill="black"/>
<path d="M174.02 142.465H163.616V224.402H174.02V142.465Z" fill="black"/>
<path fill-rule="evenodd" clip-rule="evenodd" d="M173.695 142.79H163.941V224.077H173.695V142.79ZM174.02 142.465V224.402H163.616V142.465H174.02Z" fill="black"/>
<path d="M157.763 150.269H148.009V230.254H157.763V150.269Z" fill="black"/>
<path fill-rule="evenodd" clip-rule="evenodd" d="M157.438 150.594H148.334V229.929H157.438V150.594ZM157.763 150.269V230.254H148.009V150.269H157.763Z" fill="black"/>
<path d="M140.856 153.52H132.402V232.855H140.856V153.52Z" fill="black"/>
<path fill-rule="evenodd" clip-rule="evenodd" d="M140.53 153.845H132.727V232.53H140.53V153.845ZM140.856 153.52V232.855H132.402V153.52H140.856Z" fill="black"/>
<path d="M124.598 153.52H116.795V232.855H124.598V153.52Z" fill="black"/>
<path fill-rule="evenodd" clip-rule="evenodd" d="M124.273 153.845H117.12V232.53H124.273V153.845ZM124.598 153.52V232.855H116.795V153.52H124.598Z" fill="black"/>
<path d="M107.691 150.269H101.188V230.254H107.691V150.269Z" fill="black"/>
<path fill-rule="evenodd" clip-rule="evenodd" d="M107.366 150.594H101.513V229.929H107.366V150.594ZM107.691 150.269V230.254H101.188V150.269H107.691Z" fill="black"/>
<path d="M90.7833 142.465H84.9307V224.402H90.7833V142.465Z" fill="black"/>
<path fill-rule="evenodd" clip-rule="evenodd" d="M90.4581 142.79H85.2558V224.077H90.4581V142.79ZM90.7833 142.465V224.402H84.9307V142.465H90.7833Z" fill="black"/>
<path d="M73.8755 130.11H69.3235V216.598H73.8755V130.11Z" fill="black"/>
<path fill-rule="evenodd" clip-rule="evenodd" d="M73.5504 130.435H69.6486V216.273H73.5504V130.435ZM73.8755 130.11V216.598H69.3235V130.11H73.8755Z" fill="black"/>
<path d="M57.6183 148.318H53.7166V203.593H57.6183V148.318Z" fill="black"/>
<path fill-rule="evenodd" clip-rule="evenodd" d="M57.2931 148.643H54.0417V203.267H57.2931V148.643ZM57.6183 148.318V203.593H53.7166V148.318H57.6183Z" fill="black"/>
</svg>
