<svg width="850" height="525" viewBox="0 0 850 525" fill="none" xmlns="http://www.w3.org/2000/svg">
<path d="M294.485 242.121H275V283.878H294.485V242.121Z" fill="#131217"/>
<path d="M315.402 187.008H297.224V338.442H315.402V187.008Z" fill="#131217"/>
<path d="M336.323 162.021H319.452V290.588H336.323V162.021Z" fill="#131217"/>
<path d="M357.234 145.062H341.733V259.461H357.234V145.062Z" fill="#131217"/>
<path d="M378.153 133.751H363.96V242.868H378.153V133.751Z" fill="#131217"/>
<path d="M399.071 126.732H386.185V233.053H399.071V126.732Z" fill="#131217"/>
<path d="M419.99 123H408.411V228.575H419.99V123Z" fill="#131217"/>
<path d="M440.903 123H430.631V228.575H440.903V123Z" fill="#131217"/>
<path d="M461.884 126.732H452.92V233.053H461.884V126.732Z" fill="#131217"/>
<path d="M482.802 133.751H475.145V242.868H482.802V133.751Z" fill="#131217"/>
<path d="M503.657 145.062H497.369V259.958H503.657V145.062Z" fill="#131217"/>
<path d="M524.574 162.021H519.594V235.408H524.574V162.021Z" fill="#131217"/>
<path d="M575 242.87H555.515V283.136H575V242.87Z" fill="#131217"/>
<path d="M552.77 187.563H534.592V333.529H552.77V187.563Z" fill="#131217"/>
<path d="M530.551 235.412H513.681V363.979H530.551V235.412Z" fill="#131217"/>
<path d="M508.265 266.046H492.763V380.943H508.265V266.046Z" fill="#131217"/>
<path d="M486.037 283.135H471.843V392.252H486.037V283.135Z" fill="#131217"/>
<path d="M463.815 292.952H450.929V399.273H463.815V292.952Z" fill="#131217"/>
<path d="M441.591 297.425H430.012V403H441.591V297.425Z" fill="#131217"/>
<path d="M419.363 297.425H409.092V403H419.363V297.425Z" fill="#131217"/>
<path d="M397.143 292.952H388.178V399.273H397.143V292.952Z" fill="#131217"/>
<path d="M374.921 283.135H367.264V392.252H374.921V283.135Z" fill="#131217"/>
<path d="M352.629 266.046H346.341V380.943H352.629V266.046Z" fill="#131217"/>
<path d="M330.407 290.59H325.426V363.977H330.407V290.59Z" fill="#131217"/>
</svg>
