<svg width="128" height="128" viewBox="0 0 128 128" fill="none" xmlns="http://www.w3.org/2000/svg">
<path d="M9.18382 55.0517H1V72.9478H9.18382V55.0517Z" fill="#131217"/>
<path d="M17.969 31.4321H10.3342V96.3325H17.969V31.4321Z" fill="#131217"/>
<path d="M26.7555 20.7235H19.6699V75.8236H26.7555V20.7235Z" fill="#131217"/>
<path d="M35.5381 13.455H29.0277V62.4832H35.5381V13.455Z" fill="#131217"/>
<path d="M44.3244 8.60751H38.363V55.372H44.3244V8.60751Z" fill="#131217"/>
<path d="M53.1098 5.5995H47.6975V51.1656H53.1098V5.5995Z" fill="#131217"/>
<path d="M61.8958 4H57.0326V49.2465H61.8958V4Z" fill="#131217"/>
<path d="M70.6794 4H66.3652V49.2465H70.6794V4Z" fill="#131217"/>
<path d="M79.4914 5.5995H75.7263V51.1656H79.4914V5.5995Z" fill="#131217"/>
<path d="M88.2768 8.60751H85.0608V55.372H88.2768V8.60751Z" fill="#131217"/>
<path d="M97.0358 13.455H94.3951V62.6962H97.0358V13.455Z" fill="#131217"/>
<path d="M105.821 20.7235H103.729V52.175H105.821V20.7235Z" fill="#131217"/>
<path d="M127 55.3728H118.816V72.6298H127V55.3728Z" fill="#131217"/>
<path d="M117.663 31.6699H110.029V94.2267H117.663V31.6699Z" fill="#131217"/>
<path d="M108.332 52.1766H101.246V107.277H108.332V52.1766Z" fill="#131217"/>
<path d="M98.9711 65.3056H92.4606V114.547H98.9711V65.3056Z" fill="#131217"/>
<path d="M89.6357 72.6293H83.6743V119.394H89.6357V72.6293Z" fill="#131217"/>
<path d="M80.3024 76.8368H74.8901V122.403H80.3024V76.8368Z" fill="#131217"/>
<path d="M70.9684 78.7535H66.1051V124H70.9684V78.7535Z" fill="#131217"/>
<path d="M61.6326 78.7535H57.3185V124H61.6326V78.7535Z" fill="#131217"/>
<path d="M52.2999 76.8368H48.5349V122.403H52.2999V76.8368Z" fill="#131217"/>
<path d="M42.9667 72.6293H39.7507V119.394H42.9667V72.6293Z" fill="#131217"/>
<path d="M33.604 65.3056H30.9632V114.547H33.604V65.3056Z" fill="#131217"/>
<path d="M24.2708 75.8243H22.179V107.276H24.2708V75.8243Z" fill="#131217"/>
</svg>
